<?xml version="1.0" encoding="UTF-8" standalone="no"?>
<!-- Generator: Adobe Illustrator 25.0.0, SVG Export Plug-In . SVG Version: 6.00 Build 0)  -->

<svg
   version="1.1"
   id="Layer_1"
   x="0px"
   y="0px"
   viewBox="0 0 534 302"
   style="enable-background:new 0 0 534 302;"
   xml:space="preserve"
   sodipodi:docname="disney-plus.svg"
   inkscape:version="1.1.2 (b8e25be833, 2022-02-05)"
   xmlns:inkscape="http://www.inkscape.org/namespaces/inkscape"
   xmlns:sodipodi="http://sodipodi.sourceforge.net/DTD/sodipodi-0.dtd"
   xmlns="http://www.w3.org/2000/svg"
   xmlns:svg="http://www.w3.org/2000/svg"><defs
   id="defs163" /><sodipodi:namedview
   id="namedview161"
   pagecolor="#ffffff"
   bordercolor="#666666"
   borderopacity="1.0"
   inkscape:pageshadow="2"
   inkscape:pageopacity="0.0"
   inkscape:pagecheckerboard="0"
   showgrid="false"
   inkscape:zoom="1.9812734"
   inkscape:cx="266.74764"
   inkscape:cy="150.91304"
   inkscape:window-width="2560"
   inkscape:window-height="1377"
   inkscape:window-x="-8"
   inkscape:window-y="-8"
   inkscape:window-maximized="1"
   inkscape:current-layer="Layer_1" />
<style
   type="text/css"
   id="style152">
	.st0{fill:&quot;currentColor&quot;}
	.st1{fill:&quot;currentColor&quot;}
</style>
<g
   id="g158"
   transform="matrix(0.89736771,0,0,0.89736771,27.188889,15.856548)">
	<path
   fill="currentColor"
   class="st0"
   d="m 241.7,203.4 c 0.3,0 0.3,0 0.6,0.1 4.6,0.6 9.1,1.4 12.5,3 3.2,1.4 5.1,3.2 6.8,6.4 2.6,4.8 2.8,11.5 0.4,16.6 -1.8,3.8 -5.6,7 -9.1,8.7 -3.6,1.8 -7.2,2.6 -11.3,3.1 -7.2,0.8 -15,-0.7 -21.4,-3.8 -3.8,-1.9 -8.5,-5.1 -10.9,-9.2 -1.7,-3 -1.7,-7 0.4,-9.9 3.4,-4.6 10.6,-5.6 16,-5.4 4.1,0.2 11.6,1.4 15.5,2.8 1.1,0.4 5.1,2 5.8,2.7 0.5,0.5 0.8,1.2 0.6,1.9 -0.9,2.7 -7.6,4.2 -9.5,4.5 -5.2,0.8 -7.8,-1.2 -13.7,-3.5 -1.5,-0.6 -3.4,-1.2 -4.9,-1.3 -2.7,-0.3 -5.9,0.5 -6.4,3.4 -0.3,1.5 1.5,2.9 2.8,3.5 3.1,1.4 5.7,1.8 8.8,1.9 9.1,0.1 19.4,-1.4 26.9,-6.7 1,-0.7 2,-1.8 2,-3.1 0,-2.7 -4.7,-4.4 -4.7,-4.4 -5,-2.1 -14.4,-3.1 -19.1,-3.5 -5,-0.4 -13,-1.1 -14.9,-1.4 -2,-0.3 -4.1,-0.7 -5.8,-1.4 -1.7,-0.8 -3.4,-2.5 -3.9,-4.4 -0.9,-3.4 0.2,-7.6 2.1,-10.4 5,-7.2 16.7,-9.9 25.5,-11 8.5,-1.1 22.2,-1 30.5,3.4 1.3,0.7 1.9,1.3 1.7,2.7 -0.5,2.6 -2.5,4.2 -4.8,5 -2.5,0.8 -7.6,1.1 -9.8,1.2 -10,0.6 -22.1,0.3 -31.7,2.9 -0.7,0.2 -2,0.6 -2.5,1 -1.5,1.6 2.8,2.1 3.7,2.3 0.3,0.1 0.3,0.1 0.6,0.1 l 21.2,2.2 M 182,158.7 c 0,0 1.6,-2.4 3,-4.3 2.5,-3.4 7,-8.1 10.4,-11 1,-0.9 2.3,-1.9 2.3,-1.9 0,0 -1.9,0.2 -3,0.4 -2.6,0.5 -6.3,3 -8.2,4.6 -3.1,2.7 -6.5,7 -5,10.8 0.2,0.7 0.5,1.4 0.5,1.4 m 17.3,4.6 c 4.9,-0.3 9.5,-1.8 13.8,-4.1 4.2,-2.3 10.4,-6.9 9.7,-12.3 -0.2,-1.7 -1.3,-3.1 -2.8,-3.7 -1.9,-0.8 -2.8,-0.7 -5.2,0 -1.7,0.5 -2.5,0.8 -4.2,1.8 -4.8,2.8 -11.7,8.8 -15.4,13.6 -0.9,1.1 -1.7,2.4 -2.4,3.3 -0.4,0.5 -0.8,1 -0.7,1.2 0.2,0.4 5.3,0.4 7.2,0.2 m -12.5,9.2 c -0.5,0.5 -1,1.8 -1.6,2.8 -0.3,0.5 -0.8,1.1 -1.2,1.4 -1.3,0.9 -2.4,1 -3.6,-0.1 -1.7,-1.5 -2.7,-3.9 -2.8,-6.2 0,-1 0.1,-2.1 -0.1,-3 -0.3,-1.4 -1.7,-2.9 -2.5,-4.3 -0.9,-1.6 -1.6,-4.4 -1.7,-6.2 -0.3,-5.7 2.7,-10.9 6.5,-15 3.9,-4.2 9,-7.6 14.6,-10 5.2,-2.2 12.9,-3.7 18.7,-1.7 1.9,0.6 4.5,2.2 5.8,3.9 0.3,0.3 0.5,0.7 0.8,0.9 0.3,0.2 0.9,0.2 1.5,0.3 1.8,0.3 4.5,1.7 5.6,2.6 2.2,1.9 3.4,3.7 3.9,6.3 1.1,5.2 -1.9,11 -5.3,14.5 -5.9,6 -11.7,10.2 -19.2,13.2 -3.3,1.3 -8.4,2.5 -12.2,2.2 -1.2,-0.1 -2.4,-0.4 -3.5,-0.5 -0.6,-0.1 -2.7,-0.6 -2.9,-0.7 -0.4,-0.3 -0.7,-0.4 -0.8,-0.4 m 6.7,11.6 c 0.2,0 0.6,0.1 0.9,0.3 2.6,1 3.7,3.4 4.4,6.1 1.5,6.2 2.1,20 2.4,25.4 0.2,4 0.3,8 0.5,12 0.1,3.4 0.4,7.9 -0.3,11 -0.3,1.1 -1,2.5 -2.1,3.1 -1.3,0.8 -4.1,0.9 -5.7,0.5 -3.9,-0.8 -5.1,-3.3 -5.7,-7.1 -1.3,-9.1 -0.7,-27 0.1,-34.5 0.3,-2.5 1.2,-10.5 2.5,-13.8 0.4,-1 1.4,-3.3 3,-3 M 76.2,199.3 c 0,0 -5.7,0.4 -9.7,0.8 -5,0.5 -14.5,2.2 -19.9,4.1 -1.6,0.6 -5,2 -5.2,3.7 -0.3,1.7 0.8,3.1 2,4.5 0.7,0.8 4.6,4.6 5.7,5.5 4.6,3.9 14,9.8 20.9,12.7 2.4,1 6.3,2.4 6.3,2.4 0,0 -0.3,-11.2 -0.2,-22.2 0,-5.8 0.1,-11.5 0.1,-11.5 m 105.2,4.4 c 0.3,3 -0.4,8.7 -0.6,9.4 -0.2,1.7 -1.5,5.7 -1.8,6.2 -1.1,2.4 -2.1,4.4 -3.2,6.4 -1.9,3.4 -6.4,8.8 -9,11.1 -9.9,8.5 -25.2,13.4 -38.3,15 -8.9,1.1 -19.1,0.9 -28.6,-0.8 -3.2,-0.6 -8.1,-1.7 -8.1,-1.7 0,0 0,1.9 -0.1,3.3 -0.1,0.6 -0.5,2.3 -0.8,2.8 -0.7,1.4 -1.8,2.1 -3.4,2.5 -2,0.4 -4.1,0.5 -5.9,-0.3 -3,-1.3 -4.1,-4.1 -4.6,-7.3 -0.4,-2.6 -0.9,-7.1 -0.9,-7.1 0,0 -2.2,-1.1 -4.1,-2 -5.7,-2.8 -11.2,-6.3 -16,-9.8 -1.3,-1 -7,-5.7 -8.3,-6.9 -3.5,-3.3 -6.7,-6.7 -9.1,-10.9 -1.9,-3.3 -2.4,-6.3 -1,-9.8 2,-4.9 9,-8.6 13.8,-10.7 3.5,-1.6 14.6,-5.2 19.1,-5.8 2.2,-0.3 5.5,-0.9 5.7,-1 0.1,-0.1 0.1,-0.1 0.2,-0.2 0.1,-0.1 0.3,-5 0.2,-6.8 0,-1.8 1.3,-13.2 1.7,-15.7 0.2,-1.3 1.2,-6.4 2.2,-7.7 0.7,-0.9 1.8,-0.8 2.8,-0.2 5.2,3.3 6.8,14.6 7.2,20.3 0.2,3.5 0.4,8.8 0.4,8.8 0,0 6,-0.2 9.7,-0.1 3.6,0.1 7.6,0.7 11.3,1.2 4.8,0.8 14.1,2.8 19.4,5.5 4.4,2.2 8.5,6 9.9,10 1.2,3.6 1.1,6.2 -0.8,9.5 -2.1,3.7 -6.1,6.5 -10.2,6.7 -1.2,0.1 -5.8,-0.5 -7.2,-1.6 -0.5,-0.4 -0.5,-1.2 -0.1,-1.7 0.1,-0.2 2.3,-1.3 3.5,-2 0.6,-0.3 1.2,-0.7 1.6,-1.2 1,-0.9 2,-1.9 1.9,-3.1 -0.1,-1.5 -1.8,-2.5 -3.3,-3.1 -7.3,-2.9 -21.9,-5.3 -28.9,-5.7 C 94.9,199 91,198.9 91,198.9 l 0.8,38.9 c 0,0 3.2,0.6 5.8,1 1.5,0.2 7.7,0.8 9.3,0.8 12.6,0.3 26.6,-0.8 38.1,-6.2 5.1,-2.4 9.7,-5.3 13.2,-9.4 4.6,-5.3 7.1,-12.6 6.4,-20.2 -0.7,-8.3 -6.5,-18.1 -11.2,-24.1 -12.3,-15.8 -33.4,-28.9 -52,-36.5 -19,-7.8 -37.7,-12.3 -57.8,-13 -5.2,-0.2 -16.5,0.1 -22.2,1.7 -0.8,0.2 -1.6,0.5 -2.4,0.7 -0.6,0.1 -1.5,0.5 -1.8,0.8 -0.1,0.1 -0.3,0.3 -0.3,0.3 0,0 0.4,0.2 0.7,0.3 0.6,0.3 3.2,0.4 4.5,0.7 1.2,0.2 2.4,0.8 2.9,1.7 0.5,0.8 0.5,1.5 0,2.2 -1.3,1.6 -6.2,1.3 -8.3,1 -2.2,-0.4 -5,-1 -5.5,-3 -0.6,-2.3 0.5,-4.5 1.7,-6.6 2.4,-4.2 5.7,-6.3 10.7,-7.7 7,-1.9 15.9,-3.3 22.5,-3.5 15,-0.6 29.2,2.1 43.8,6.5 8.3,2.5 19.2,6.7 27.2,10.6 5.7,2.8 14.8,7.8 19.8,11.2 1.6,1.1 11,7.9 12.4,9.1 3,2.5 7,6 9.9,8.9 5.6,5.5 12.5,13.9 15.8,20.7 0.8,1.6 1.4,3.2 2.5,5 0.4,0.6 1.9,4.4 2.1,5.5 0.3,1.1 0.6,2.7 0.7,2.8 0.5,0.1 1.2,3.3 1.1,4.6 z m 188.9,-8.6 c -7,1.6 -25.5,2.5 -25.5,2.5 l -2.3,7.3 c 0,0 9.2,-0.8 16,-0.1 0,0 2.2,-0.3 2.4,2.5 0.1,2.5 -0.2,5.3 -0.2,5.3 0,0 -0.1,1.7 -2.5,2.1 -2.5,0.4 -19.9,1.1 -19.9,1.1 l -2.8,9.5 c 0,0 -1,2.2 1.3,1.6 2.2,-0.6 20.4,-4 22.8,-3.5 2.5,0.6 5.4,4 4.5,7.1 -1,3.8 -19.2,15.4 -30.2,14.6 0,0 -5.8,0.4 -10.7,-7.5 -4.6,-7.5 1.7,-21.7 1.7,-21.7 0,0 -2.9,-6.6 -0.8,-8.9 0,0 1.2,-1.1 4.9,-1.4 l 4.5,-9.2 c 0,0 -5.1,0.3 -8.1,-3.4 -2.8,-3.5 -3,-5.2 -0.9,-6.1 2.3,-1.1 23.5,-5 38,-4.5 0,0 5.1,-0.5 9.4,8.3 -0.1,0 2,3.6 -1.6,4.4 z m -54.7,35.5 c -1.9,4.4 -6.8,9.1 -12.9,6.2 -6,-2.9 -15.7,-22.6 -15.7,-22.6 0,0 -3.7,-7.3 -4.4,-7.2 0,0 -0.8,-1.4 -1.3,6.6 -0.5,8 0.1,23.6 -3.1,26 -3,2.5 -6.7,1.5 -8.6,-1.4 -1.7,-2.8 -2.4,-9.6 -1.5,-21.4 1.1,-11.8 3.9,-24.4 7.4,-28.3 3.5,-3.9 6.3,-1.1 7.4,0 0,0 4.7,4.3 12.4,16.7 l 1.4,2.3 c 0,0 7,11.8 7.8,11.8 0,0 0.6,0.5 1.1,0.1 0.7,-0.2 0.4,-4 0.4,-4 0,0 -1.5,-12.9 -7.9,-34.6 0,0 -1,-2.7 -0.3,-5.3 0.7,-2.6 3.2,-1.4 3.2,-1.4 0,0 9.9,5 14.8,21.2 4.9,16.2 1.6,30.9 -0.2,35.3 z m 106.9,-9.7 c -4.5,7.9 -17.3,24.4 -34.3,20.5 -5.6,13.6 -10.3,27.4 -13,47.9 0,0 -0.6,4 -3.9,2.6 -3.3,-1.2 -8.7,-6.6 -9.8,-14.2 -1.2,-10 3.3,-26.8 12.3,-46.1 -2.6,-4.3 -4.4,-10.4 -2.9,-19.2 0,0 2.3,-16.2 18.6,-30.8 0,0 2,-1.7 3.1,-1.2 1.2,0.5 0.7,5.8 -0.3,8.4 -1,2.6 -8.3,15.1 -8.3,15.1 0,0 -4.5,8.5 -3.3,15.2 8.5,-13.1 28,-39.6 40,-31.3 4,2.9 5.9,9.2 5.9,16 0,6 -1.4,12.3 -4.1,17.1 z M 419,200.1 c 0,0 -0.7,-5.2 -5.8,0.5 -4.4,4.9 -12.3,14 -18.7,26.3 6.7,-0.8 13.1,-4.4 15.1,-6.2 3.2,-2.8 10.6,-10.5 9.4,-20.6 z m 97.1,-1.2 H 485 c -0.6,-10.6 -1.9,-20.9 -3.9,-31.5 -0.2,-1.1 -1.2,-1.9 -2.3,-1.9 h -7.2 c -0.6,0 -1.2,0.3 -1.6,0.8 -0.4,0.5 -0.6,1.1 -0.4,1.8 2,10.3 3.3,20.4 4,30.9 h -29.9 c -1.4,0 -2.5,1.1 -2.5,2.5 v 6.5 c 0,1.4 1.1,2.5 2.5,2.5 h 30.4 c 0,1.6 0,3 0,4.4 0,9.3 -0.4,17 -1.3,25.7 -0.1,0.7 0.1,1.3 0.6,1.8 0.4,0.5 1.1,0.8 1.7,0.8 h 6.7 c 1.3,0 2.4,-1 2.5,-2.3 0.9,-8.7 1.3,-16.5 1.3,-26 0,-1.3 0,-2.8 0,-4.4 h 30.7 c 1.4,0 2.5,-1.1 2.5,-2.5 v -6.5 c -0.2,-1.5 -1.3,-2.6 -2.7,-2.6 z"
   id="path154" />
	<path
   fill="currentColor"
   class="st1"
   d="M 476.8,150.3 C 461,111.3 434.1,78 399.3,54.2 363.6,29.7 321.8,16.8 278.3,16.8 c -71.9,0 -138.5,35.7 -178.3,95.5 -0.4,0.6 -0.5,1.5 -0.3,2.2 0.3,0.8 0.8,1.3 1.6,1.6 l 5.6,1.9 c 0.3,0.1 0.7,0.2 1,0.2 1,0 2,-0.5 2.6,-1.4 18.3,-26.8 43,-49.2 71.5,-64.6 29.4,-15.9 62.8,-24.4 96.4,-24.4 40.7,0 79.9,12 113.4,34.7 32.7,22.1 58.2,53 73.5,89.3 0.5,1.1 1.5,1.8 2.7,1.8 h 6.7 c 0.8,0 1.5,-0.4 1.9,-1 0.5,-0.8 0.5,-1.6 0.2,-2.3 z"
   id="path156" />
</g>
</svg>
