<?xml version="1.0" encoding="UTF-8" standalone="no"?>
<!-- Generator: Adobe Illustrator 16.0.0, SVG Export Plug-In . SVG Version: 6.00 Build 0)  -->

<svg
   version="1.1"
   id="Layer_1"
   x="0px"
   y="0px"
   viewBox="-202.36 103.054 1000 635.783"
   enable-background="new -202.36 103.054 1000 635.783"
   xml:space="preserve"
   sodipodi:docname="hbo-max.svg"
   inkscape:version="1.1.2 (b8e25be833, 2022-02-05)"
   xmlns:inkscape="http://www.inkscape.org/namespaces/inkscape"
   xmlns:sodipodi="http://sodipodi.sourceforge.net/DTD/sodipodi-0.dtd"
   xmlns="http://www.w3.org/2000/svg"
   xmlns:svg="http://www.w3.org/2000/svg"><defs
   id="defs45" /><sodipodi:namedview
   id="namedview43"
   pagecolor="#ffffff"
   bordercolor="#666666"
   borderopacity="1.0"
   inkscape:pageshadow="2"
   inkscape:pageopacity="0.0"
   inkscape:pagecheckerboard="0"
   showgrid="false"
   inkscape:zoom="0.9185524"
   inkscape:cx="232.43094"
   inkscape:cy="467.03922"
   inkscape:window-width="2560"
   inkscape:window-height="1377"
   inkscape:window-x="-8"
   inkscape:window-y="-8"
   inkscape:window-maximized="1"
   inkscape:current-layer="Layer_1"
   height="1000px"
   fit-margin-top="0"
   fit-margin-bottom="0" />
<g
   id="g40"
   transform="matrix(0.72945207,0,0,0.72945207,75.791346,113.88593)">
	<path
   fill="currentColor"
   d="m 75.637,440.029 c -33.21,0 -62.982,11.364 -83.372,33.264 -20.429,-21.834 -50.267,-33.066 -83.476,-33.027 -60.515,0.092 -109.706,37.605 -111.149,108.302 0,0.145 0,161.39 0,161.39 0.028,14.737 11.951,26.684 26.688,26.74 h 24.931 c 2.354,-0.054 4.22,-2.006 4.164,-4.36 0,-0.046 -0.002,-0.093 -0.005,-0.139 v -183.25 c 1.01,-34.823 25.416,-53.297 55.411,-53.337 29.994,-0.039 54.452,18.369 55.567,53.179 v 160.157 c 0,14.8 12.137,27.829 26.74,27.803 h 24.931 c 2.448,-0.174 4.301,-2.285 4.159,-4.736 V 549.446 c 1.01,-34.823 25.429,-54.031 55.411,-54.071 29.983,-0.039 54.453,18.369 55.568,53.18 v 160.982 c 0,14.788 12.137,27.239 26.74,27.213 h 24.931 c 2.441,0 4.106,-2.505 4.093,-4.973 0,0 0,-183.695 0,-183.905 C 185.383,477.268 136.125,439.951 75.637,440.029 Z"
   id="path28" />
	<path
   fill="currentColor"
   d="m 762.228,448.27 c 0.674,-1.031 0.385,-2.413 -0.646,-3.087 -0.372,-0.245 -0.811,-0.371 -1.255,-0.364 h -44.612 c -10.498,0 -20.654,1.154 -29.693,13.844 l -45.624,67.323 c -3.568,5.25 -8.752,11.509 -16.113,11.509 -7.36,0 -12.53,-6.246 -16.1,-11.509 l -45.608,-67.323 c -9.027,-12.689 -19.223,-13.883 -29.68,-13.844 h -44.612 c -1.231,-0.023 -2.251,0.955 -2.275,2.187 -0.008,0.454 0.122,0.899 0.373,1.278 l 87.99,129.898 c 5.003,7.644 5.003,17.524 0,25.167 l -87.99,129.899 c -0.689,1.064 -0.384,2.486 0.682,3.174 0.364,0.236 0.788,0.364 1.221,0.367 h 44.612 c 10.496,0 20.652,-1.311 29.68,-13.934 l 45.661,-67.35 c 3.569,-5.25 8.752,-11.521 16.1,-11.521 7.348,0 12.545,6.245 16.113,11.521 l 45.624,67.31 c 9.041,12.689 19.235,13.974 29.693,13.935 l 44.611,-0.118 c 1.225,0.024 2.236,-0.949 2.26,-2.174 0.008,-0.442 -0.117,-0.877 -0.357,-1.25 L 674.288,603.31 c -5.001,-7.644 -5.001,-17.524 0,-25.167 z"
   id="path30" />
	<path
   fill="currentColor"
   d="m 468.878,444.818 h -17.57 c -9.608,-0.009 -18.496,5.089 -23.343,13.385 l -6.494,11.336 c -25.272,-21.27 -58.021,-29.563 -85.09,-29.563 -81.851,0 -136.342,57.838 -136.342,149.425 0,92.319 55.41,149.436 135.686,149.436 30.743,0 61.209,-10.181 80.694,-25.953 1.103,13.856 12.701,23.813 26.872,23.813 h 25.481 c 2.479,0 4.5,-1.061 4.5,-3.541 l 0.105,-283.915 c -0.035,-2.458 -2.042,-4.429 -4.499,-4.423 z M 335.187,683.27 c -46.555,0 -80.656,-34.652 -80.656,-93.815 0,-59.164 34.115,-93.803 80.656,-93.803 46.541,0 80.655,34.639 80.655,93.803 0,59.162 -34.114,93.815 -80.655,93.815 z"
   id="path32" />
	<polygon
   fill="currentColor"
   points="61.677,414.628 144.917,414.628 144.917,108.17 61.677,108.17 61.677,222.167 7.644,222.167 7.644,108.17 -78.155,108.17 -78.155,414.628 7.644,414.628 7.644,295.724 61.677,295.724 "
   id="polygon34" />
	<path
   fill="currentColor"
   d="m 386.162,328.685 c 12.188,24.93 54.478,87.491 140.238,87.452 85.76,-0.04 155.721,-71.366 155.708,-157.23 0,-87.676 -69.856,-155.801 -155.708,-155.853 -85.853,-0.053 -129.572,63.06 -140.396,88.54 0.092,-38.247 -37.605,-83.397 -81.705,-83.45 H 162.224 v 306.472 h 132.523 c 53.35,0.026 91.349,-46.253 91.415,-85.931 z M 526.453,180.953 c 43.088,-0.008 78.024,34.917 78.031,78.005 0.006,43.089 -34.917,78.025 -78.005,78.032 -43.09,0.007 -78.024,-34.917 -78.032,-78.005 0,-0.009 0,-0.018 0,-0.026 10e-4,-43.082 34.925,-78.006 78.006,-78.006 z M 371.23,239.657 c -1.981,8.739 -2.139,34.023 0.184,42.748 -6.468,-9.959 -21.78,-22.213 -31.596,-23.447 9.657,-1.22 25.744,-12.255 31.412,-19.301 z M 241.607,176.373 h 42.132 c 12.268,0 21.912,12.111 21.912,25.901 0,13.791 -9.645,25.901 -21.912,25.901 h -42.132 z m -0.158,166.863 v -51.79 h 42.145 c 12.254,0 21.912,12.111 21.912,25.901 0,13.79 -9.656,25.888 -21.912,25.888 h -42.145 z"
   id="path36" />
	<path
   fill="currentColor"
   d="m 526.453,320.286 c 33.87,0 61.327,-27.457 61.327,-61.328 0,-33.87 -27.457,-61.327 -61.327,-61.327 -33.871,0 -61.329,27.457 -61.329,61.327 v 0 c -0.006,33.864 27.439,61.321 61.303,61.328 0.009,0 0.017,0 0.026,0 z"
   id="path38" />
</g>
</svg>
